<?xml version="1.0" encoding="UTF-8" standalone="no"?>
<!DOCTYPE svg PUBLIC "-//W3C//DTD SVG 1.1//EN" "http://www.w3.org/Graphics/SVG/1.1/DTD/svg11.dtd">
<svg width="100%" height="100%" viewBox="0 0 70 70" version="1.1" xmlns="http://www.w3.org/2000/svg" xmlns:xlink="http://www.w3.org/1999/xlink" xml:space="preserve"  style="fill-rule:evenodd;clip-rule:evenodd;stroke-linejoin:round;stroke-miterlimit:2;">
    <g transform="matrix(1,0,0,1,-1811.81,-865.062)">
        <g transform="matrix(1.5,0,0,1.38889,0,0.0625)">
            <g transform="matrix(0.538662,0,0,0.581755,411.809,531.429)">
                <circle cx="1521.18" cy="200.378" r="43.317" style="fill:rgb(204,204,204);"/>
                <clipPath id="_clip1">
                    <circle cx="1521.18" cy="200.378" r="43.317"/>
                </clipPath>
                <g clip-path="url(#_clip1)">
                    <g id="ic_markunread_24px" transform="matrix(2.16586,0,0,2.16586,1495.19,174.388)">
                        <path d="M20,4L4,4C2.9,4 2.01,4.9 2.01,6L2,18C2,19.1 2.9,20 4,20L20,20C21.1,20 22,19.1 22,18L22,6C22,4.9 21.1,4 20,4ZM20,8L12,13L4,8L4,6L12,11L20,6L20,8Z" style="fill:rgb(35,39,43);fill-rule:nonzero;"/>
                    </g>
                </g>
            </g>
        </g>
    </g>
</svg>
