<?xml version="1.0" encoding="UTF-8" standalone="no"?>
<!DOCTYPE svg PUBLIC "-//W3C//DTD SVG 1.1//EN" "http://www.w3.org/Graphics/SVG/1.1/DTD/svg11.dtd">
<svg width="100%" height="100%" viewBox="0 0 24 24" version="1.1" xmlns="http://www.w3.org/2000/svg" xmlns:xlink="http://www.w3.org/1999/xlink" xml:space="preserve"  style="fill-rule:evenodd;clip-rule:evenodd;stroke-linejoin:round;stroke-miterlimit:2;">
    <g transform="matrix(1,0,0,1,-4261.09,-412.739)">
        <g transform="matrix(1.5,0,0,1.38889,4241.49,0.0625)">
            <g id="account-circle" transform="matrix(0.8,0,0,0.864,11.4673,295.401)">
                <path d="M11.999,19.198C9.495,19.198 7.292,17.919 6.001,15.978C6.027,13.991 10.005,12.898 11.999,12.898C13.993,12.898 17.971,13.991 17.997,15.978C16.706,17.919 14.503,19.198 11.999,19.198ZM11.999,4.998C13.655,4.998 14.999,6.342 14.999,7.998C14.999,9.656 13.655,10.998 11.999,10.998C10.343,10.998 8.999,9.656 8.999,7.998C8.999,6.342 10.343,4.998 11.999,4.998ZM11.999,1.998C6.476,1.998 1.999,6.474 1.999,11.998C1.999,17.521 6.476,21.998 11.999,21.998C17.522,21.998 21.999,17.521 21.999,11.998C21.999,6.474 17.522,1.998 11.999,1.998Z" style="fill:white;fill-rule:nonzero;"/>
            </g>
        </g>
    </g>
</svg>
