<?xml version="1.0" encoding="UTF-8" standalone="no"?>
<!DOCTYPE svg PUBLIC "-//W3C//DTD SVG 1.1//EN" "http://www.w3.org/Graphics/SVG/1.1/DTD/svg11.dtd">
<svg width="100%" height="100%" viewBox="0 0 1062 429" version="1.1" xmlns="http://www.w3.org/2000/svg" xmlns:xlink="http://www.w3.org/1999/xlink" xml:space="preserve"  style="fill-rule:evenodd;clip-rule:evenodd;stroke-linejoin:round;stroke-miterlimit:2;">
    <g transform="matrix(1,0,0,1,-462.652,-295.735)">
        <g transform="matrix(1.5,0,0,1.38889,0,0.0625)">
            <g transform="matrix(0.268822,-8.26754e-18,-1.96589e-17,0.290328,542.798,385.128)">
                <path d="M146.079,364.601L156.543,364.601L202.926,468.871L187.713,468.871L173.909,438.146L129.826,438.146L116.765,468.871L101.551,468.871L146.079,364.601ZM167.824,424.936L151.126,387.385L135.615,424.936L167.824,424.936Z" style="fill:url(#_Radial1);fill-rule:nonzero;"/>
                <path d="M214.8,468.871L214.8,365.195L240.775,365.195C251.264,365.195 259.588,367.792 265.748,372.987C271.907,378.182 274.987,385.208 274.987,394.064C274.987,400.1 273.478,405.319 270.46,409.723C267.442,414.126 263.113,417.416 257.473,419.593C260.788,421.77 264.028,424.739 267.195,428.499C270.361,432.259 274.814,438.814 280.553,448.165C284.165,454.053 287.059,458.481 289.236,461.449L294.728,468.871L277.065,468.871L272.538,462.043C272.39,461.796 272.093,461.375 271.648,460.781L268.753,456.7L264.152,449.13L259.18,441.041C256.112,436.786 253.305,433.397 250.757,430.873C248.209,428.35 245.908,426.532 243.855,425.419C241.802,424.306 238.351,423.749 233.502,423.749L229.643,423.749L229.643,468.871L214.8,468.871ZM234.096,377.811L229.643,377.811L229.643,410.539L235.283,410.539C242.803,410.539 247.961,409.896 250.757,408.61C253.552,407.323 255.729,405.381 257.287,402.784C258.846,400.186 259.625,397.23 259.625,393.915C259.625,390.65 258.759,387.694 257.028,385.047C255.296,382.4 252.859,380.532 249.718,379.444C246.576,378.355 241.369,377.811 234.096,377.811Z" style="fill:url(#_Radial2);fill-rule:nonzero;"/>
                <path d="M283.67,365.046L370.277,365.046L370.277,378.256L334.135,378.256L334.135,468.871L319.218,468.871L319.218,378.256L283.67,378.256L283.67,365.046Z" style="fill:url(#_Radial3);fill-rule:nonzero;"/>
                <rect x="384.452" y="365.195" width="14.843" height="103.676" style="fill:url(#_Radial4);fill-rule:nonzero;"/>
                <path d="M447.978,425.382L436.698,418.554C429.623,414.25 424.588,410.007 421.595,405.827C418.602,401.646 417.105,396.834 417.105,391.392C417.105,383.229 419.938,376.599 425.603,371.503C431.268,366.407 438.627,363.859 447.681,363.859C456.339,363.859 464.28,366.283 471.503,371.132L471.503,387.978C464.033,380.804 455.993,377.217 447.384,377.217C442.536,377.217 438.553,378.343 435.436,380.594C432.319,382.845 430.76,385.727 430.76,389.24C430.76,392.357 431.898,395.276 434.174,397.997C436.45,400.718 440.136,403.563 445.232,406.532L456.587,413.211C469.252,420.731 475.585,430.329 475.585,442.005C475.585,450.317 472.802,457.071 467.236,462.266C461.67,467.461 454.434,470.058 445.529,470.058C435.287,470.058 425.961,466.916 417.551,460.633L417.551,441.783C425.566,451.925 434.842,456.996 445.38,456.996C450.031,456.996 453.903,455.698 456.995,453.1C460.087,450.503 461.633,447.25 461.633,443.341C461.633,437.008 457.081,431.022 447.978,425.382Z" style="fill:url(#_Radial5);fill-rule:nonzero;"/>
                <path d="M483.081,365.046L569.687,365.046L569.687,378.256L533.546,378.256L533.546,468.871L518.629,468.871L518.629,378.256L483.081,378.256L483.081,365.046Z" style="fill:url(#_Radial6);fill-rule:nonzero;"/>
            </g>
            <g transform="matrix(0.268822,-8.26754e-18,-1.96589e-17,0.290328,281.136,190.737)">
                <path d="M146.079,364.601L156.543,364.601L202.926,468.871L187.713,468.871L173.909,438.146L129.826,438.146L116.765,468.871L101.551,468.871L146.079,364.601ZM167.824,424.936L151.126,387.385L135.615,424.936L167.824,424.936Z" style="fill:url(#_Radial7);fill-rule:nonzero;"/>
                <path d="M214.8,468.871L214.8,365.195L240.775,365.195C251.264,365.195 259.588,367.792 265.748,372.987C271.907,378.182 274.987,385.208 274.987,394.064C274.987,400.1 273.478,405.319 270.46,409.723C267.442,414.126 263.113,417.416 257.473,419.593C260.788,421.77 264.028,424.739 267.195,428.499C270.361,432.259 274.814,438.814 280.553,448.165C284.165,454.053 287.059,458.481 289.236,461.449L294.728,468.871L277.065,468.871L272.538,462.043C272.39,461.796 272.093,461.375 271.648,460.781L268.753,456.7L264.152,449.13L259.18,441.041C256.112,436.786 253.305,433.397 250.757,430.873C248.209,428.35 245.908,426.532 243.855,425.419C241.802,424.306 238.351,423.749 233.502,423.749L229.643,423.749L229.643,468.871L214.8,468.871ZM234.096,377.811L229.643,377.811L229.643,410.539L235.283,410.539C242.803,410.539 247.961,409.896 250.757,408.61C253.552,407.323 255.729,405.381 257.287,402.784C258.846,400.186 259.625,397.23 259.625,393.915C259.625,390.65 258.759,387.694 257.028,385.047C255.296,382.4 252.859,380.532 249.718,379.444C246.576,378.355 241.369,377.811 234.096,377.811Z" style="fill:url(#_Radial8);fill-rule:nonzero;"/>
                <path d="M395.509,444.826L395.509,461.152C384.625,467.089 372.058,470.058 357.809,470.058C346.232,470.058 336.411,467.733 328.346,463.082C320.282,458.431 313.9,452.024 309.199,443.861C304.499,435.697 302.149,426.866 302.149,417.367C302.149,402.277 307.53,389.586 318.291,379.295C329.051,369.005 342.323,363.859 358.106,363.859C368.99,363.859 381.087,366.704 394.396,372.394L394.396,388.349C382.275,381.423 370.425,377.96 358.848,377.96C346.974,377.96 337.116,381.707 329.274,389.203C321.432,396.698 317.511,406.086 317.511,417.367C317.511,428.746 321.37,438.097 329.089,445.419C336.807,452.742 346.677,456.403 358.7,456.403C371.266,456.403 383.536,452.544 395.509,444.826Z" style="fill:url(#_Radial9);fill-rule:nonzero;"/>
                <path d="M486.866,365.195L501.708,365.195L501.708,468.871L486.866,468.871L486.866,423.749L428.608,423.749L428.608,468.871L413.766,468.871L413.766,365.195L428.608,365.195L428.608,410.02L486.866,410.02L486.866,365.195Z" style="fill:url(#_Radial10);fill-rule:nonzero;"/>
                <rect x="524.714" y="365.195" width="14.843" height="103.676" style="fill:url(#_Radial11);fill-rule:nonzero;"/>
                <path d="M553.732,365.046L640.338,365.046L640.338,378.256L604.196,378.256L604.196,468.871L589.28,468.871L589.28,378.256L553.732,378.256L553.732,365.046Z" style="fill:url(#_Radial12);fill-rule:nonzero;"/>
                <path d="M654.364,365.195L713.141,365.195L713.141,378.405L669.207,378.405L669.207,410.02L711.657,410.02L711.657,423.304L669.207,423.304L669.207,455.512L714.551,455.512L714.551,468.722L654.364,468.722L654.364,365.195Z" style="fill:url(#_Radial13);fill-rule:nonzero;"/>
                <path d="M819.711,444.826L819.711,461.152C808.827,467.089 796.26,470.058 782.011,470.058C770.434,470.058 760.613,467.733 752.548,463.082C744.484,458.431 738.102,452.024 733.401,443.861C728.701,435.697 726.351,426.866 726.351,417.367C726.351,402.277 731.732,389.586 742.492,379.295C753.253,369.005 766.525,363.859 782.308,363.859C793.192,363.859 805.289,366.704 818.598,372.394L818.598,388.349C806.477,381.423 794.627,377.96 783.05,377.96C771.176,377.96 761.318,381.707 753.476,389.203C745.634,396.698 741.713,406.086 741.713,417.367C741.713,428.746 745.572,438.097 753.291,445.419C761.009,452.742 770.879,456.403 782.902,456.403C795.468,456.403 807.738,452.544 819.711,444.826Z" style="fill:url(#_Radial14);fill-rule:nonzero;"/>
                <path d="M829.136,365.046L915.743,365.046L915.743,378.256L879.601,378.256L879.601,468.871L864.684,468.871L864.684,378.256L829.136,378.256L829.136,365.046Z" style="fill:url(#_Radial15);fill-rule:nonzero;"/>
            </g>
            <g transform="matrix(0.268822,-8.26754e-18,-1.96589e-17,0.290328,721.117,190.737)">
                <path d="M112.164,468.871L112.164,365.046L145.04,365.046C154.935,365.046 162.827,367.718 168.714,373.062C174.602,378.405 177.545,385.579 177.545,394.583C177.545,400.619 176.036,405.963 173.018,410.613C170,415.264 165.869,418.641 160.625,420.743C155.38,422.846 147.86,423.897 138.064,423.897L127.081,423.897L127.081,468.871L112.164,468.871ZM142.443,378.256L127.081,378.256L127.081,410.688L143.333,410.688C149.369,410.688 154.02,409.265 157.285,406.42C160.551,403.575 162.183,399.506 162.183,394.212C162.183,383.575 155.603,378.256 142.443,378.256Z" style="fill:url(#_Radial16);fill-rule:nonzero;"/>
                <path d="M190.904,468.871L190.904,365.195L216.878,365.195C227.367,365.195 235.691,367.792 241.851,372.987C248.011,378.182 251.091,385.208 251.091,394.064C251.091,400.1 249.582,405.319 246.564,409.723C243.546,414.126 239.217,417.416 233.576,419.593C236.891,421.77 240.132,424.739 243.298,428.499C246.465,432.259 250.917,438.814 256.657,448.165C260.268,454.053 263.163,458.481 265.34,461.449L270.831,468.871L253.169,468.871L248.642,462.043C248.493,461.796 248.196,461.375 247.751,460.781L244.857,456.7L240.255,449.13L235.283,441.041C232.216,436.786 229.408,433.397 226.86,430.873C224.312,428.35 222.011,426.532 219.958,425.419C217.905,424.306 214.454,423.749 209.605,423.749L205.746,423.749L205.746,468.871L190.904,468.871ZM210.199,377.811L205.746,377.811L205.746,410.539L211.387,410.539C218.907,410.539 224.065,409.896 226.86,408.61C229.655,407.323 231.832,405.381 233.391,402.784C234.949,400.186 235.728,397.23 235.728,393.915C235.728,390.65 234.863,387.694 233.131,385.047C231.399,382.4 228.963,380.532 225.821,379.444C222.679,378.355 217.472,377.811 210.199,377.811Z" style="fill:url(#_Radial17);fill-rule:nonzero;"/>
                <path d="M324.042,363.711C340.072,363.711 353.418,368.782 364.08,378.924C374.742,389.067 380.073,401.782 380.073,417.07C380.073,432.358 374.692,445.011 363.932,455.03C353.171,465.049 339.602,470.058 323.226,470.058C307.591,470.058 294.567,465.049 284.153,455.03C273.738,445.011 268.531,432.457 268.531,417.367C268.531,401.881 273.775,389.067 284.264,378.924C294.753,368.782 308.012,363.711 324.042,363.711ZM324.636,377.811C312.762,377.811 303.003,381.522 295.359,388.943C287.715,396.364 283.893,405.839 283.893,417.367C283.893,428.548 287.727,437.85 295.396,445.271C303.064,452.692 312.663,456.403 324.19,456.403C335.768,456.403 345.428,452.618 353.171,445.048C360.914,437.478 364.785,428.053 364.785,416.773C364.785,405.789 360.914,396.55 353.171,389.054C345.428,381.559 335.916,377.811 324.636,377.811Z" style="fill:url(#_Radial18);fill-rule:nonzero;"/>
                <path d="M454.286,417.812L489.092,417.812L489.092,461.746C476.327,467.287 463.662,470.058 451.095,470.058C433.927,470.058 420.21,465.049 409.944,455.03C399.678,445.011 394.544,432.655 394.544,417.96C394.544,402.475 399.863,389.586 410.5,379.295C421.138,369.005 434.471,363.859 450.501,363.859C456.339,363.859 461.88,364.49 467.125,365.752C472.369,367.013 478.999,369.326 487.014,372.69L487.014,387.83C474.645,380.656 462.375,377.069 450.204,377.069C438.874,377.069 429.326,380.928 421.558,388.646C413.79,396.364 409.907,405.839 409.907,417.07C409.907,428.845 413.79,438.468 421.558,445.939C429.326,453.41 439.32,457.145 451.54,457.145C457.477,457.145 464.577,455.784 472.839,453.063L474.249,452.618L474.249,431.022L454.286,431.022L454.286,417.812Z" style="fill:url(#_Radial19);fill-rule:nonzero;"/>
                <path d="M511.207,468.871L511.207,365.195L537.182,365.195C547.671,365.195 555.995,367.792 562.155,372.987C568.314,378.182 571.394,385.208 571.394,394.064C571.394,400.1 569.885,405.319 566.867,409.723C563.849,414.126 559.52,417.416 553.88,419.593C557.195,421.77 560.435,424.739 563.602,428.499C566.768,432.259 571.221,438.814 576.96,448.165C580.572,454.053 583.466,458.481 585.643,461.449L591.135,468.871L573.472,468.871L568.945,462.043C568.797,461.796 568.5,461.375 568.055,460.781L565.16,456.7L560.559,449.13L555.587,441.041C552.519,436.786 549.712,433.397 547.164,430.873C544.616,428.35 542.315,426.532 540.262,425.419C538.209,424.306 534.758,423.749 529.909,423.749L526.05,423.749L526.05,468.871L511.207,468.871ZM530.503,377.811L526.05,377.811L526.05,410.539L531.69,410.539C539.211,410.539 544.368,409.896 547.164,408.61C549.959,407.323 552.136,405.381 553.694,402.784C555.253,400.186 556.032,397.23 556.032,393.915C556.032,390.65 555.166,387.694 553.435,385.047C551.703,382.4 549.266,380.532 546.125,379.444C542.983,378.355 537.776,377.811 530.503,377.811Z" style="fill:url(#_Radial20);fill-rule:nonzero;"/>
                <path d="M635.663,364.601L646.127,364.601L692.51,468.871L677.296,468.871L663.493,438.146L619.41,438.146L606.349,468.871L591.135,468.871L635.663,364.601ZM657.407,424.936L640.709,387.385L625.199,424.936L657.407,424.936Z" style="fill:url(#_Radial21);fill-rule:nonzero;"/>
                <path d="M786.464,365.195L800.267,365.195L800.267,468.871L785.351,468.871L785.351,388.201L753.439,428.276L750.693,428.276L718.485,388.201L718.485,468.871L703.642,468.871L703.642,365.195L717.594,365.195L752.103,407.793L786.464,365.195Z" style="fill:url(#_Radial22);fill-rule:nonzero;"/>
                <path d="M905.13,365.195L918.934,365.195L918.934,468.871L904.017,468.871L904.017,388.201L872.106,428.276L869.36,428.276L837.151,388.201L837.151,468.871L822.309,468.871L822.309,365.195L836.261,365.195L870.77,407.793L905.13,365.195Z" style="fill:url(#_Radial23);fill-rule:nonzero;"/>
                <path d="M941.272,365.195L1000.05,365.195L1000.05,378.405L956.115,378.405L956.115,410.02L998.565,410.02L998.565,423.304L956.115,423.304L956.115,455.512L1001.46,455.512L1001.46,468.722L941.272,468.722L941.272,365.195Z" style="fill:url(#_Radial24);fill-rule:nonzero;"/>
                <path d="M1017.71,468.871L1017.71,365.195L1043.69,365.195C1054.17,365.195 1062.5,367.792 1068.66,372.987C1074.82,378.182 1077.9,385.208 1077.9,394.064C1077.9,400.1 1076.39,405.319 1073.37,409.723C1070.35,414.126 1066.02,417.416 1060.38,419.593C1063.7,421.77 1066.94,424.739 1070.11,428.499C1073.27,432.259 1077.72,438.814 1083.46,448.165C1087.08,454.053 1089.97,458.481 1092.15,461.449L1097.64,468.871L1079.98,468.871L1075.45,462.043C1075.3,461.796 1075,461.375 1074.56,460.781L1071.66,456.7L1067.06,449.13L1062.09,441.041C1059.02,436.786 1056.22,433.397 1053.67,430.873C1051.12,428.35 1048.82,426.532 1046.77,425.419C1044.71,424.306 1041.26,423.749 1036.41,423.749L1032.55,423.749L1032.55,468.871L1017.71,468.871ZM1037.01,377.811L1032.55,377.811L1032.55,410.539L1038.19,410.539C1045.71,410.539 1050.87,409.896 1053.67,408.61C1056.46,407.323 1058.64,405.381 1060.2,402.784C1061.76,400.186 1062.54,397.23 1062.54,393.915C1062.54,390.65 1061.67,387.694 1059.94,385.047C1058.21,382.4 1055.77,380.532 1052.63,379.444C1049.49,378.355 1044.28,377.811 1037.01,377.811Z" style="fill:url(#_Radial25);fill-rule:nonzero;"/>
            </g>
            <g id="Icon" transform="matrix(0.882791,0,0,0.953414,457.745,144.238)">
                <path d="M121.371,310.168C120.847,311.281 119.665,312 118.36,312L90.288,312C89.178,312 88.143,311.478 87.536,310.613C86.928,309.748 86.831,308.655 87.277,307.709C101.031,278.508 180.82,109.113 197.438,73.832C197.963,72.716 199.149,71.997 200.457,72C201.766,72.003 202.948,72.728 203.467,73.846C207.736,83.033 215.286,99.28 217.408,103.846C217.771,104.627 217.768,105.513 217.402,106.292C209.859,122.305 130.541,290.7 121.371,310.168ZM296.733,276.69C297.169,277.636 297.066,278.723 296.458,279.583C295.85,280.443 294.818,280.96 293.712,280.96L155.88,280.96C154.77,280.96 153.734,280.439 153.127,279.573C152.52,278.708 152.423,277.616 152.869,276.669C156.207,269.581 162.738,255.717 165.081,250.741C165.605,249.628 166.787,248.909 168.093,248.909L242.768,248.909C243.872,248.909 244.902,248.393 245.511,247.536C246.119,246.679 246.226,245.594 245.794,244.649C238.387,228.44 212.172,171.07 208.018,161.981C207.663,161.205 207.669,160.326 208.033,159.553C210.207,154.937 218.074,138.236 222.479,128.884C223.005,127.767 224.192,127.048 225.502,127.052C226.812,127.057 227.994,127.784 228.511,128.905C240.723,155.358 286.636,254.818 296.733,276.69Z" style="fill:url(#_Radial26);"/>
            </g>
        </g>
    </g>
    <defs>
        <radialGradient id="_Radial1" cx="0" cy="0" r="1" gradientUnits="userSpaceOnUse" gradientTransform="matrix(4792.79,1389.39,-1389.39,4792.79,-2019.8,-1194.52)"><stop offset="0" style="stop-color:rgb(248,47,202);stop-opacity:1"/><stop offset="0.31" style="stop-color:rgb(212,75,209);stop-opacity:1"/><stop offset="0.41" style="stop-color:rgb(128,139,226);stop-opacity:1"/><stop offset="0.51" style="stop-color:rgb(40,206,243);stop-opacity:1"/><stop offset="0.6" style="stop-color:rgb(60,227,176);stop-opacity:1"/><stop offset="0.7" style="stop-color:rgb(78,247,114);stop-opacity:1"/><stop offset="1" style="stop-color:rgb(86,255,88);stop-opacity:1"/></radialGradient>
        <radialGradient id="_Radial2" cx="0" cy="0" r="1" gradientUnits="userSpaceOnUse" gradientTransform="matrix(4792.79,1389.39,-1389.39,4792.79,-2019.8,-1194.52)"><stop offset="0" style="stop-color:rgb(248,47,202);stop-opacity:1"/><stop offset="0.31" style="stop-color:rgb(212,75,209);stop-opacity:1"/><stop offset="0.41" style="stop-color:rgb(128,139,226);stop-opacity:1"/><stop offset="0.51" style="stop-color:rgb(40,206,243);stop-opacity:1"/><stop offset="0.6" style="stop-color:rgb(60,227,176);stop-opacity:1"/><stop offset="0.7" style="stop-color:rgb(78,247,114);stop-opacity:1"/><stop offset="1" style="stop-color:rgb(86,255,88);stop-opacity:1"/></radialGradient>
        <radialGradient id="_Radial3" cx="0" cy="0" r="1" gradientUnits="userSpaceOnUse" gradientTransform="matrix(4792.79,1389.39,-1389.39,4792.79,-2019.8,-1194.52)"><stop offset="0" style="stop-color:rgb(248,47,202);stop-opacity:1"/><stop offset="0.31" style="stop-color:rgb(212,75,209);stop-opacity:1"/><stop offset="0.41" style="stop-color:rgb(128,139,226);stop-opacity:1"/><stop offset="0.51" style="stop-color:rgb(40,206,243);stop-opacity:1"/><stop offset="0.6" style="stop-color:rgb(60,227,176);stop-opacity:1"/><stop offset="0.7" style="stop-color:rgb(78,247,114);stop-opacity:1"/><stop offset="1" style="stop-color:rgb(86,255,88);stop-opacity:1"/></radialGradient>
        <radialGradient id="_Radial4" cx="0" cy="0" r="1" gradientUnits="userSpaceOnUse" gradientTransform="matrix(4792.79,1389.39,-1389.39,4792.79,-2019.8,-1194.52)"><stop offset="0" style="stop-color:rgb(248,47,202);stop-opacity:1"/><stop offset="0.31" style="stop-color:rgb(212,75,209);stop-opacity:1"/><stop offset="0.41" style="stop-color:rgb(128,139,226);stop-opacity:1"/><stop offset="0.51" style="stop-color:rgb(40,206,243);stop-opacity:1"/><stop offset="0.6" style="stop-color:rgb(60,227,176);stop-opacity:1"/><stop offset="0.7" style="stop-color:rgb(78,247,114);stop-opacity:1"/><stop offset="1" style="stop-color:rgb(86,255,88);stop-opacity:1"/></radialGradient>
        <radialGradient id="_Radial5" cx="0" cy="0" r="1" gradientUnits="userSpaceOnUse" gradientTransform="matrix(4792.79,1389.39,-1389.39,4792.79,-2019.8,-1194.52)"><stop offset="0" style="stop-color:rgb(248,47,202);stop-opacity:1"/><stop offset="0.31" style="stop-color:rgb(212,75,209);stop-opacity:1"/><stop offset="0.41" style="stop-color:rgb(128,139,226);stop-opacity:1"/><stop offset="0.51" style="stop-color:rgb(40,206,243);stop-opacity:1"/><stop offset="0.6" style="stop-color:rgb(60,227,176);stop-opacity:1"/><stop offset="0.7" style="stop-color:rgb(78,247,114);stop-opacity:1"/><stop offset="1" style="stop-color:rgb(86,255,88);stop-opacity:1"/></radialGradient>
        <radialGradient id="_Radial6" cx="0" cy="0" r="1" gradientUnits="userSpaceOnUse" gradientTransform="matrix(4792.79,1389.39,-1389.39,4792.79,-2019.8,-1194.52)"><stop offset="0" style="stop-color:rgb(248,47,202);stop-opacity:1"/><stop offset="0.31" style="stop-color:rgb(212,75,209);stop-opacity:1"/><stop offset="0.41" style="stop-color:rgb(128,139,226);stop-opacity:1"/><stop offset="0.51" style="stop-color:rgb(40,206,243);stop-opacity:1"/><stop offset="0.6" style="stop-color:rgb(60,227,176);stop-opacity:1"/><stop offset="0.7" style="stop-color:rgb(78,247,114);stop-opacity:1"/><stop offset="1" style="stop-color:rgb(86,255,88);stop-opacity:1"/></radialGradient>
        <radialGradient id="_Radial7" cx="0" cy="0" r="1" gradientUnits="userSpaceOnUse" gradientTransform="matrix(4792.79,1389.39,-1389.39,4792.79,-1046.43,-524.962)"><stop offset="0" style="stop-color:rgb(248,47,202);stop-opacity:1"/><stop offset="0.31" style="stop-color:rgb(212,75,209);stop-opacity:1"/><stop offset="0.41" style="stop-color:rgb(128,139,226);stop-opacity:1"/><stop offset="0.51" style="stop-color:rgb(40,206,243);stop-opacity:1"/><stop offset="0.6" style="stop-color:rgb(60,227,176);stop-opacity:1"/><stop offset="0.7" style="stop-color:rgb(78,247,114);stop-opacity:1"/><stop offset="1" style="stop-color:rgb(86,255,88);stop-opacity:1"/></radialGradient>
        <radialGradient id="_Radial8" cx="0" cy="0" r="1" gradientUnits="userSpaceOnUse" gradientTransform="matrix(4792.79,1389.39,-1389.39,4792.79,-1046.43,-524.962)"><stop offset="0" style="stop-color:rgb(248,47,202);stop-opacity:1"/><stop offset="0.31" style="stop-color:rgb(212,75,209);stop-opacity:1"/><stop offset="0.41" style="stop-color:rgb(128,139,226);stop-opacity:1"/><stop offset="0.51" style="stop-color:rgb(40,206,243);stop-opacity:1"/><stop offset="0.6" style="stop-color:rgb(60,227,176);stop-opacity:1"/><stop offset="0.7" style="stop-color:rgb(78,247,114);stop-opacity:1"/><stop offset="1" style="stop-color:rgb(86,255,88);stop-opacity:1"/></radialGradient>
        <radialGradient id="_Radial9" cx="0" cy="0" r="1" gradientUnits="userSpaceOnUse" gradientTransform="matrix(4792.79,1389.39,-1389.39,4792.79,-1046.43,-524.962)"><stop offset="0" style="stop-color:rgb(248,47,202);stop-opacity:1"/><stop offset="0.31" style="stop-color:rgb(212,75,209);stop-opacity:1"/><stop offset="0.41" style="stop-color:rgb(128,139,226);stop-opacity:1"/><stop offset="0.51" style="stop-color:rgb(40,206,243);stop-opacity:1"/><stop offset="0.6" style="stop-color:rgb(60,227,176);stop-opacity:1"/><stop offset="0.7" style="stop-color:rgb(78,247,114);stop-opacity:1"/><stop offset="1" style="stop-color:rgb(86,255,88);stop-opacity:1"/></radialGradient>
        <radialGradient id="_Radial10" cx="0" cy="0" r="1" gradientUnits="userSpaceOnUse" gradientTransform="matrix(4792.79,1389.39,-1389.39,4792.79,-1046.43,-524.962)"><stop offset="0" style="stop-color:rgb(248,47,202);stop-opacity:1"/><stop offset="0.31" style="stop-color:rgb(212,75,209);stop-opacity:1"/><stop offset="0.41" style="stop-color:rgb(128,139,226);stop-opacity:1"/><stop offset="0.51" style="stop-color:rgb(40,206,243);stop-opacity:1"/><stop offset="0.6" style="stop-color:rgb(60,227,176);stop-opacity:1"/><stop offset="0.7" style="stop-color:rgb(78,247,114);stop-opacity:1"/><stop offset="1" style="stop-color:rgb(86,255,88);stop-opacity:1"/></radialGradient>
        <radialGradient id="_Radial11" cx="0" cy="0" r="1" gradientUnits="userSpaceOnUse" gradientTransform="matrix(4792.79,1389.39,-1389.39,4792.79,-1046.43,-524.962)"><stop offset="0" style="stop-color:rgb(248,47,202);stop-opacity:1"/><stop offset="0.31" style="stop-color:rgb(212,75,209);stop-opacity:1"/><stop offset="0.41" style="stop-color:rgb(128,139,226);stop-opacity:1"/><stop offset="0.51" style="stop-color:rgb(40,206,243);stop-opacity:1"/><stop offset="0.6" style="stop-color:rgb(60,227,176);stop-opacity:1"/><stop offset="0.7" style="stop-color:rgb(78,247,114);stop-opacity:1"/><stop offset="1" style="stop-color:rgb(86,255,88);stop-opacity:1"/></radialGradient>
        <radialGradient id="_Radial12" cx="0" cy="0" r="1" gradientUnits="userSpaceOnUse" gradientTransform="matrix(4792.79,1389.39,-1389.39,4792.79,-1046.43,-524.962)"><stop offset="0" style="stop-color:rgb(248,47,202);stop-opacity:1"/><stop offset="0.31" style="stop-color:rgb(212,75,209);stop-opacity:1"/><stop offset="0.41" style="stop-color:rgb(128,139,226);stop-opacity:1"/><stop offset="0.51" style="stop-color:rgb(40,206,243);stop-opacity:1"/><stop offset="0.6" style="stop-color:rgb(60,227,176);stop-opacity:1"/><stop offset="0.7" style="stop-color:rgb(78,247,114);stop-opacity:1"/><stop offset="1" style="stop-color:rgb(86,255,88);stop-opacity:1"/></radialGradient>
        <radialGradient id="_Radial13" cx="0" cy="0" r="1" gradientUnits="userSpaceOnUse" gradientTransform="matrix(4792.79,1389.39,-1389.39,4792.79,-1046.43,-524.962)"><stop offset="0" style="stop-color:rgb(248,47,202);stop-opacity:1"/><stop offset="0.31" style="stop-color:rgb(212,75,209);stop-opacity:1"/><stop offset="0.41" style="stop-color:rgb(128,139,226);stop-opacity:1"/><stop offset="0.51" style="stop-color:rgb(40,206,243);stop-opacity:1"/><stop offset="0.6" style="stop-color:rgb(60,227,176);stop-opacity:1"/><stop offset="0.7" style="stop-color:rgb(78,247,114);stop-opacity:1"/><stop offset="1" style="stop-color:rgb(86,255,88);stop-opacity:1"/></radialGradient>
        <radialGradient id="_Radial14" cx="0" cy="0" r="1" gradientUnits="userSpaceOnUse" gradientTransform="matrix(4792.79,1389.39,-1389.39,4792.79,-1046.43,-524.962)"><stop offset="0" style="stop-color:rgb(248,47,202);stop-opacity:1"/><stop offset="0.31" style="stop-color:rgb(212,75,209);stop-opacity:1"/><stop offset="0.41" style="stop-color:rgb(128,139,226);stop-opacity:1"/><stop offset="0.51" style="stop-color:rgb(40,206,243);stop-opacity:1"/><stop offset="0.6" style="stop-color:rgb(60,227,176);stop-opacity:1"/><stop offset="0.7" style="stop-color:rgb(78,247,114);stop-opacity:1"/><stop offset="1" style="stop-color:rgb(86,255,88);stop-opacity:1"/></radialGradient>
        <radialGradient id="_Radial15" cx="0" cy="0" r="1" gradientUnits="userSpaceOnUse" gradientTransform="matrix(4792.79,1389.39,-1389.39,4792.79,-1046.43,-524.962)"><stop offset="0" style="stop-color:rgb(248,47,202);stop-opacity:1"/><stop offset="0.31" style="stop-color:rgb(212,75,209);stop-opacity:1"/><stop offset="0.41" style="stop-color:rgb(128,139,226);stop-opacity:1"/><stop offset="0.51" style="stop-color:rgb(40,206,243);stop-opacity:1"/><stop offset="0.6" style="stop-color:rgb(60,227,176);stop-opacity:1"/><stop offset="0.7" style="stop-color:rgb(78,247,114);stop-opacity:1"/><stop offset="1" style="stop-color:rgb(86,255,88);stop-opacity:1"/></radialGradient>
        <radialGradient id="_Radial16" cx="0" cy="0" r="1" gradientUnits="userSpaceOnUse" gradientTransform="matrix(4792.79,1389.39,-1389.39,4792.79,-2683.13,-524.962)"><stop offset="0" style="stop-color:rgb(248,47,202);stop-opacity:1"/><stop offset="0.31" style="stop-color:rgb(212,75,209);stop-opacity:1"/><stop offset="0.41" style="stop-color:rgb(128,139,226);stop-opacity:1"/><stop offset="0.51" style="stop-color:rgb(40,206,243);stop-opacity:1"/><stop offset="0.6" style="stop-color:rgb(60,227,176);stop-opacity:1"/><stop offset="0.7" style="stop-color:rgb(78,247,114);stop-opacity:1"/><stop offset="1" style="stop-color:rgb(86,255,88);stop-opacity:1"/></radialGradient>
        <radialGradient id="_Radial17" cx="0" cy="0" r="1" gradientUnits="userSpaceOnUse" gradientTransform="matrix(4792.79,1389.39,-1389.39,4792.79,-2683.13,-524.962)"><stop offset="0" style="stop-color:rgb(248,47,202);stop-opacity:1"/><stop offset="0.31" style="stop-color:rgb(212,75,209);stop-opacity:1"/><stop offset="0.41" style="stop-color:rgb(128,139,226);stop-opacity:1"/><stop offset="0.51" style="stop-color:rgb(40,206,243);stop-opacity:1"/><stop offset="0.6" style="stop-color:rgb(60,227,176);stop-opacity:1"/><stop offset="0.7" style="stop-color:rgb(78,247,114);stop-opacity:1"/><stop offset="1" style="stop-color:rgb(86,255,88);stop-opacity:1"/></radialGradient>
        <radialGradient id="_Radial18" cx="0" cy="0" r="1" gradientUnits="userSpaceOnUse" gradientTransform="matrix(4792.79,1389.39,-1389.39,4792.79,-2683.13,-524.962)"><stop offset="0" style="stop-color:rgb(248,47,202);stop-opacity:1"/><stop offset="0.31" style="stop-color:rgb(212,75,209);stop-opacity:1"/><stop offset="0.41" style="stop-color:rgb(128,139,226);stop-opacity:1"/><stop offset="0.51" style="stop-color:rgb(40,206,243);stop-opacity:1"/><stop offset="0.6" style="stop-color:rgb(60,227,176);stop-opacity:1"/><stop offset="0.7" style="stop-color:rgb(78,247,114);stop-opacity:1"/><stop offset="1" style="stop-color:rgb(86,255,88);stop-opacity:1"/></radialGradient>
        <radialGradient id="_Radial19" cx="0" cy="0" r="1" gradientUnits="userSpaceOnUse" gradientTransform="matrix(4792.79,1389.39,-1389.39,4792.79,-2683.13,-524.962)"><stop offset="0" style="stop-color:rgb(248,47,202);stop-opacity:1"/><stop offset="0.31" style="stop-color:rgb(212,75,209);stop-opacity:1"/><stop offset="0.41" style="stop-color:rgb(128,139,226);stop-opacity:1"/><stop offset="0.51" style="stop-color:rgb(40,206,243);stop-opacity:1"/><stop offset="0.6" style="stop-color:rgb(60,227,176);stop-opacity:1"/><stop offset="0.7" style="stop-color:rgb(78,247,114);stop-opacity:1"/><stop offset="1" style="stop-color:rgb(86,255,88);stop-opacity:1"/></radialGradient>
        <radialGradient id="_Radial20" cx="0" cy="0" r="1" gradientUnits="userSpaceOnUse" gradientTransform="matrix(4792.79,1389.39,-1389.39,4792.79,-2683.13,-524.962)"><stop offset="0" style="stop-color:rgb(248,47,202);stop-opacity:1"/><stop offset="0.31" style="stop-color:rgb(212,75,209);stop-opacity:1"/><stop offset="0.41" style="stop-color:rgb(128,139,226);stop-opacity:1"/><stop offset="0.51" style="stop-color:rgb(40,206,243);stop-opacity:1"/><stop offset="0.6" style="stop-color:rgb(60,227,176);stop-opacity:1"/><stop offset="0.7" style="stop-color:rgb(78,247,114);stop-opacity:1"/><stop offset="1" style="stop-color:rgb(86,255,88);stop-opacity:1"/></radialGradient>
        <radialGradient id="_Radial21" cx="0" cy="0" r="1" gradientUnits="userSpaceOnUse" gradientTransform="matrix(4792.79,1389.39,-1389.39,4792.79,-2683.13,-524.962)"><stop offset="0" style="stop-color:rgb(248,47,202);stop-opacity:1"/><stop offset="0.31" style="stop-color:rgb(212,75,209);stop-opacity:1"/><stop offset="0.41" style="stop-color:rgb(128,139,226);stop-opacity:1"/><stop offset="0.51" style="stop-color:rgb(40,206,243);stop-opacity:1"/><stop offset="0.6" style="stop-color:rgb(60,227,176);stop-opacity:1"/><stop offset="0.7" style="stop-color:rgb(78,247,114);stop-opacity:1"/><stop offset="1" style="stop-color:rgb(86,255,88);stop-opacity:1"/></radialGradient>
        <radialGradient id="_Radial22" cx="0" cy="0" r="1" gradientUnits="userSpaceOnUse" gradientTransform="matrix(4792.79,1389.39,-1389.39,4792.79,-2683.13,-524.962)"><stop offset="0" style="stop-color:rgb(248,47,202);stop-opacity:1"/><stop offset="0.31" style="stop-color:rgb(212,75,209);stop-opacity:1"/><stop offset="0.41" style="stop-color:rgb(128,139,226);stop-opacity:1"/><stop offset="0.51" style="stop-color:rgb(40,206,243);stop-opacity:1"/><stop offset="0.6" style="stop-color:rgb(60,227,176);stop-opacity:1"/><stop offset="0.7" style="stop-color:rgb(78,247,114);stop-opacity:1"/><stop offset="1" style="stop-color:rgb(86,255,88);stop-opacity:1"/></radialGradient>
        <radialGradient id="_Radial23" cx="0" cy="0" r="1" gradientUnits="userSpaceOnUse" gradientTransform="matrix(4792.79,1389.39,-1389.39,4792.79,-2683.13,-524.962)"><stop offset="0" style="stop-color:rgb(248,47,202);stop-opacity:1"/><stop offset="0.31" style="stop-color:rgb(212,75,209);stop-opacity:1"/><stop offset="0.41" style="stop-color:rgb(128,139,226);stop-opacity:1"/><stop offset="0.51" style="stop-color:rgb(40,206,243);stop-opacity:1"/><stop offset="0.6" style="stop-color:rgb(60,227,176);stop-opacity:1"/><stop offset="0.7" style="stop-color:rgb(78,247,114);stop-opacity:1"/><stop offset="1" style="stop-color:rgb(86,255,88);stop-opacity:1"/></radialGradient>
        <radialGradient id="_Radial24" cx="0" cy="0" r="1" gradientUnits="userSpaceOnUse" gradientTransform="matrix(4792.79,1389.39,-1389.39,4792.79,-2683.13,-524.962)"><stop offset="0" style="stop-color:rgb(248,47,202);stop-opacity:1"/><stop offset="0.31" style="stop-color:rgb(212,75,209);stop-opacity:1"/><stop offset="0.41" style="stop-color:rgb(128,139,226);stop-opacity:1"/><stop offset="0.51" style="stop-color:rgb(40,206,243);stop-opacity:1"/><stop offset="0.6" style="stop-color:rgb(60,227,176);stop-opacity:1"/><stop offset="0.7" style="stop-color:rgb(78,247,114);stop-opacity:1"/><stop offset="1" style="stop-color:rgb(86,255,88);stop-opacity:1"/></radialGradient>
        <radialGradient id="_Radial25" cx="0" cy="0" r="1" gradientUnits="userSpaceOnUse" gradientTransform="matrix(4792.79,1389.39,-1389.39,4792.79,-2683.13,-524.962)"><stop offset="0" style="stop-color:rgb(248,47,202);stop-opacity:1"/><stop offset="0.31" style="stop-color:rgb(212,75,209);stop-opacity:1"/><stop offset="0.41" style="stop-color:rgb(128,139,226);stop-opacity:1"/><stop offset="0.51" style="stop-color:rgb(40,206,243);stop-opacity:1"/><stop offset="0.6" style="stop-color:rgb(60,227,176);stop-opacity:1"/><stop offset="0.7" style="stop-color:rgb(78,247,114);stop-opacity:1"/><stop offset="1" style="stop-color:rgb(86,255,88);stop-opacity:1"/></radialGradient>
        <radialGradient id="_Radial26" cx="0" cy="0" r="1" gradientUnits="userSpaceOnUse" gradientTransform="matrix(1459.47,423.088,-423.088,1459.47,-518.709,-111.088)"><stop offset="0" style="stop-color:rgb(248,47,202);stop-opacity:1"/><stop offset="0.31" style="stop-color:rgb(212,75,209);stop-opacity:1"/><stop offset="0.41" style="stop-color:rgb(128,139,226);stop-opacity:1"/><stop offset="0.51" style="stop-color:rgb(40,206,243);stop-opacity:1"/><stop offset="0.6" style="stop-color:rgb(60,227,176);stop-opacity:1"/><stop offset="0.7" style="stop-color:rgb(78,247,114);stop-opacity:1"/><stop offset="1" style="stop-color:rgb(86,255,88);stop-opacity:1"/></radialGradient>
    </defs>
</svg>
